<svg width="146" height="109" viewBox="0 0 146 109" fill="none" xmlns="http://www.w3.org/2000/svg">
<path d="M20.8063 99.3172C22.664 101.924 25.6364 103.786 29.7233 104.903C33.8103 106.021 37.8972 106.766 42.7273 106.766C47.1858 106.766 52.0158 106.393 56.4743 105.276C61.3043 104.159 65.3913 102.669 69.1067 100.807C72.8221 98.9448 76.166 96.7104 78.3953 93.731C80.9961 91.1241 82.1107 87.7724 82.1107 84.0483C82.1107 79.5793 80.253 75.8552 76.166 73.2483C72.0791 70.6414 66.8775 68.4069 60.9328 66.5448C54.9882 64.6828 48.3004 62.8207 41.2411 61.331C34.1818 59.8414 27.4941 57.6069 21.5494 55.3724C15.6047 52.7655 10.4032 49.7862 6.3162 45.6897C2.22924 41.5931 0.371536 36.3793 0.371536 30.0483C0.371536 24.0897 1.8577 19.2483 4.83004 15.5241C7.80237 11.8 11.8893 8.82069 16.3478 6.58621C21.1779 4.35172 26.0079 2.86207 31.581 2.11724C37.1542 1.37241 41.9842 1 46.8142 1C49.0435 1 52.0158 1.3724 55.7312 1.74482C59.4467 2.11723 63.1621 3.23448 66.5059 4.72414C69.8498 6.21379 73.1937 7.70344 75.7945 9.93792C78.3953 12.1724 79.8814 15.1517 79.8814 18.5034C79.8814 20.7379 79.1383 22.6 77.2806 24.0896C75.4229 25.5793 73.5652 26.3241 71.336 26.3241C68.3636 26.3241 66.5059 25.5793 65.0198 24.4621C63.5336 23.3448 62.7905 21.8552 62.0474 19.9931C61.3043 18.5034 60.9328 16.6414 60.5613 14.7793C60.1897 12.9172 59.8182 11.4276 58.7036 10.3103C56.8458 8.07586 54.6166 6.21378 52.3874 5.46895C49.7866 4.72413 46.8142 3.97931 43.4704 3.97931C39.7549 3.97931 36.0395 4.35172 32.3241 5.09655C28.2371 5.84137 24.8933 6.95862 21.5494 8.44828C18.2055 9.93793 15.6047 12.1724 13.747 14.4069C11.5178 17.0138 10.7747 19.9931 10.7747 23.3448C10.7747 26.6966 11.8893 29.6759 14.4901 31.9103C16.7194 34.1448 20.0632 36.0069 23.7787 37.869C27.4941 39.3586 31.9526 40.8483 37.1542 41.9655C41.9842 43.0828 47.1858 44.2 52.3874 45.6897C57.5889 47.1793 62.7905 48.669 67.6206 50.1586C72.4506 51.6483 76.9091 53.8828 80.996 56.1172C84.7115 58.3517 88.0553 61.331 90.2846 64.6828C92.5138 68.0345 94 72.5035 94 77.3448C94 82.931 92.5138 87.7724 89.5415 91.869C86.5692 95.9655 82.8538 98.9448 78.0237 101.552C73.1937 104.159 67.9921 106.021 62.0474 107.138C56.1028 108.255 49.7866 109 43.4704 109C41.2411 109 39.0119 109 36.0395 108.628C33.0672 108.255 30.0949 108.255 26.751 107.51C23.4071 107.138 20.4348 106.393 17.0909 105.276C13.747 104.531 11.1462 103.414 8.54545 101.924C5.94466 100.434 4.08695 98.9448 2.22924 97.0827C0.743077 95.2207 0 92.9862 0 90.0069C0 87.7724 0.743072 86.2828 2.60078 84.7931C4.45849 83.3035 6.3162 82.5586 8.54545 82.5586C11.5178 82.5586 13.3755 83.3035 14.8617 84.4207C16.3478 85.5379 17.0909 87.0276 17.834 88.8897C18.2055 90.7517 18.9486 92.2414 18.9486 94.1035C19.3202 96.7103 20.0632 98.2 20.8063 99.3172Z" fill="white"/>
<path d="M99.5825 46.5089L107.415 42.2695V107.744H99.5825V46.5089ZM108.355 68.3339C108.981 67.3918 109.921 66.6067 110.861 65.9787C111.801 65.3506 112.897 64.7226 114.151 64.4085C115.404 64.0945 116.5 63.6235 117.753 63.4664C119.007 63.3094 120.103 63.1524 121.356 63.1524C124.959 63.1524 127.935 63.6235 130.285 64.4085C132.635 65.1936 134.671 66.4497 136.081 67.8628C137.647 69.276 138.744 71.0031 139.527 72.8873C140.31 74.7715 140.937 76.8127 141.25 78.8538C141.564 81.052 141.72 83.0932 141.877 85.4484C141.877 87.6466 141.877 89.8448 141.877 91.886V107.744H134.045V91.101C134.045 89.5308 134.045 87.9607 134.045 86.0765C134.045 84.1923 133.888 82.3082 133.731 80.267C133.575 78.2258 133.105 76.3416 132.635 74.4574C132.165 72.5733 131.382 71.0031 130.442 69.433C129.502 68.0199 128.092 66.7637 126.526 65.9787C124.959 65.0366 122.923 64.5655 120.416 64.5655C118.38 64.5655 116.814 64.7226 115.404 65.0366C113.994 65.3506 112.897 65.6646 111.958 65.9787C111.018 66.2927 110.234 66.7637 109.764 67.2348C109.138 67.7058 108.668 68.0199 108.355 68.3339Z" fill="white"/>
<path d="M99.5825 5.05725L107.415 0.817871V26.8822C107.571 29.5515 108.041 32.2207 108.825 34.5759C109.608 36.9311 110.704 39.1293 112.271 40.8565C113.681 42.5836 115.404 44.1538 117.597 45.0959C119.633 46.195 121.983 46.666 124.646 46.666C127.935 46.666 130.442 45.5669 132.478 43.5257C134.514 41.4845 135.768 38.8153 136.551 35.675C137.334 32.5347 137.491 29.0804 137.177 25.4691C136.864 21.8578 135.924 18.4035 134.514 15.2632C133.105 12.1229 131.225 9.45365 128.875 7.41247C126.526 5.37128 123.706 4.27218 120.573 4.27218C119.477 4.27218 118.223 4.4292 117.127 4.90024C116.03 5.37128 114.934 5.84232 113.837 6.47038C112.741 7.09844 111.801 7.88351 111.018 8.66858C110.078 9.45365 109.451 10.3957 108.981 11.1808C110.234 8.51156 112.271 6.31337 114.934 4.58621C117.753 2.85905 120.73 2.07398 123.863 2.07398C127.779 2.07398 131.068 2.70204 133.888 3.95815C136.708 5.21427 138.901 6.94142 140.78 9.13962C142.503 11.3378 143.913 13.693 144.696 16.5193C145.48 19.3455 145.95 22.0148 145.95 24.9981C145.95 27.9813 145.48 30.6506 144.696 33.4768C143.913 36.1461 142.503 38.6583 140.78 40.8565C139.057 43.0547 136.708 44.7818 133.888 46.0379C131.068 47.2941 127.779 48.0791 124.019 48.0791C119.946 48.0791 116.5 47.4511 113.837 46.352C111.174 45.2529 109.138 43.6827 107.571 41.7986V68.648H99.7392V5.05725H99.5825Z" fill="white"/>
</svg>
